<?xml version="1.0" encoding="UTF-8"?>
<svg version="1.1" xmlns="http://www.w3.org/2000/svg" width="105" height="105">
<path d="M0 0 C1.78470703 -0.03577148 1.78470703 -0.03577148 3.60546875 -0.07226562 C17.59211782 -0.04933669 29.09777208 5.79377186 39.25 15.1875 C50.00688098 26.43820984 53.66051052 39.25675271 53.625 54.4375 C53.65335937 55.53191406 53.68171875 56.62632813 53.7109375 57.75390625 C53.74196521 70.86311312 48.29514635 80.6295641 40.125 90.5625 C39.53074219 91.2946875 38.93648438 92.026875 38.32421875 92.78125 C31.40835038 100.48200279 21.96164947 105.62317649 11.62533569 106.40576172 C8.56541042 106.52328038 5.51848682 106.53362548 2.45703125 106.47509766 C0.12437114 106.43748986 -2.1988715 106.47494166 -4.53125 106.51953125 C-19.06158016 106.5668779 -29.77794126 101.6654411 -40.390625 91.4609375 C-49.60411687 80.71186366 -52.14462121 70.47126335 -52.2800293 56.61450195 C-52.30146908 54.97073171 -52.33540285 53.32707119 -52.38256836 51.68383789 C-52.77608624 37.82388615 -50.45610853 27.69842092 -40.6875 17.25 C-35.7101805 11.99792219 -30.35530705 7.80687797 -23.875 4.5625 C-23.18921875 4.21453369 -22.5034375 3.86656738 -21.796875 3.50805664 C-14.55608129 0.1881291 -7.88306264 -0.07212705 0 0 Z " fill="#FB9F33" transform="translate(51.875,-0.5625)"/>
<path d="M0 0 C1.78470703 -0.03577148 1.78470703 -0.03577148 3.60546875 -0.07226562 C17.59211782 -0.04933669 29.09777208 5.79377186 39.25 15.1875 C50.00688098 26.43820984 53.66051052 39.25675271 53.625 54.4375 C53.65335937 55.53191406 53.68171875 56.62632813 53.7109375 57.75390625 C53.74196521 70.86311312 48.29514635 80.6295641 40.125 90.5625 C39.53074219 91.2946875 38.93648438 92.026875 38.32421875 92.78125 C31.40835038 100.48200279 21.96164947 105.62317649 11.62533569 106.40576172 C8.56541042 106.52328038 5.51848682 106.53362548 2.45703125 106.47509766 C0.12437114 106.43748986 -2.1988715 106.47494166 -4.53125 106.51953125 C-19.06158016 106.5668779 -29.77794126 101.6654411 -40.390625 91.4609375 C-49.60411687 80.71186366 -52.14462121 70.47126335 -52.2800293 56.61450195 C-52.30146908 54.97073171 -52.33540285 53.32707119 -52.38256836 51.68383789 C-52.77608624 37.82388615 -50.45610853 27.69842092 -40.6875 17.25 C-35.7101805 11.99792219 -30.35530705 7.80687797 -23.875 4.5625 C-23.18921875 4.21453369 -22.5034375 3.86656738 -21.796875 3.50805664 C-14.55608129 0.1881291 -7.88306264 -0.07212705 0 0 Z M-36.875 20.5625 C-37.43960938 21.19671875 -38.00421875 21.8309375 -38.5859375 22.484375 C-44.00137162 28.9280561 -47.875 35.99186229 -47.875 44.5625 C-48.535 44.5625 -49.195 44.5625 -49.875 44.5625 C-50.69569183 60.81219818 -48.26653448 72.51162659 -37.875 85.5625 C-37.30652344 86.2946875 -36.73804688 87.026875 -36.15234375 87.78125 C-31.51829565 93.43922217 -26.61126845 97.69515197 -19.375 99.375 C-18.55 99.436875 -17.725 99.49875 -16.875 99.5625 C-16.875 100.2225 -16.875 100.8825 -16.875 101.5625 C-3.18730447 105.94256257 10.64840504 103.80297538 23.4375 97.75 C35.4477209 91.39994848 43.28024568 81.75462908 47.51171875 68.87109375 C50.92403465 56.0260065 50.73927597 42.23372241 44.125 30.5625 C43.67898437 29.75425781 43.23296875 28.94601563 42.7734375 28.11328125 C36.3940773 17.61762997 25.6893677 9.59250693 14.125 5.5625 C-4.73632599 1.64359179 -23.91658804 5.85295129 -36.875 20.5625 Z " fill="#985E12" transform="translate(51.875,-0.5625)"/>
<path d="M0 0 C0.495 1.98 0.495 1.98 1 4 C2.65 4 4.3 4 6 4 C6 4.66 6 5.32 6 6 C6.66 6 7.32 6 8 6 C8 6.66 8 7.32 8 8 C14.93455367 7.7964723 14.93455367 7.7964723 21.0625 4.875 C24.78129266 2.50130256 26.80990284 2.85444223 31.046875 3.4453125 C33 4 33 4 35 6 C34.90717097 9.43467404 34.14336318 10.835554 31.875 13.4375 C30.92625 14.283125 29.9775 15.12875 29 16 C28.51660156 16.474375 28.03320312 16.94875 27.53515625 17.4375 C16.64100936 27.66574549 3.76092216 30.39261033 -10.703125 30.203125 C-14.72829994 29.95512844 -18.16810395 29.22620674 -22 28 C-22 27.34 -22 26.68 -22 26 C-22.86625 25.9175 -23.7325 25.835 -24.625 25.75 C-28.58287433 24.87047237 -30.86886035 23.56184153 -34 21 C-35.375 18.25 -35.375 18.25 -36 16 C-34.68 15.34 -33.36 14.68 -32 14 C-32 13.34 -32 12.68 -32 12 C-28.90992611 8.38019915 -26.82034262 6.41317222 -22 6 C-22 5.34 -22 4.68 -22 4 C-14.46005743 0.73317769 -8.21237916 -0.57184845 0 0 Z " fill="#FBCB34" transform="translate(57,73)"/>
<path d="M0 0 C1.30066406 -0.01417969 2.60132813 -0.02835938 3.94140625 -0.04296875 C7.12451826 0.16686768 8.80156237 0.49057323 11.4375 2.1875 C11.4375 2.8475 11.4375 3.5075 11.4375 4.1875 C12.8296875 4.5896875 12.8296875 4.5896875 14.25 5 C17.4375 6.1875 17.4375 6.1875 18.73828125 7.73046875 C21.28096249 9.91074485 23.51904503 9.59706188 26.8125 9.6875 C31.63168736 9.8204431 34.46718071 10.39191937 38.4375 13.1875 C38.4375 16 38.4375 16 37.4375 19.1875 C34.91018853 20.68348706 32.25963766 21.42431491 29.4375 22.1875 C28.4475 22.5175 27.4575 22.8475 26.4375 23.1875 C25.01738115 23.29593003 23.59300099 23.35328798 22.16894531 23.37695312 C21.31085266 23.39367065 20.45276001 23.41038818 19.56866455 23.4276123 C18.18115997 23.44797546 18.18115997 23.44797546 16.765625 23.46875 C15.80984558 23.48715942 14.85406616 23.50556885 13.86932373 23.52453613 C10.80877862 23.58330279 7.74817669 23.63607217 4.6875 23.6875 C0.67176493 23.75544492 -3.34380528 23.8292139 -7.359375 23.90625 C-8.27628113 23.91982544 -9.19318726 23.93340088 -10.13787842 23.9473877 C-15.03670852 24.0414456 -19.72946479 24.37292498 -24.5625 25.1875 C-25.16494722 9.09992802 -25.16494722 9.09992802 -21.5625 4.1875 C-18.65239479 2.69039385 -15.75140081 1.87613306 -12.5625 1.1875 C-11.79808594 1.00316406 -11.03367187 0.81882813 -10.24609375 0.62890625 C-6.80810074 0.06341395 -3.48330482 0.01729546 0 0 Z " fill="#FCCB34" transform="translate(27.5625,32.8125)"/>
<path d="M0 0 C0.74958984 -0.00128906 1.49917969 -0.00257813 2.27148438 -0.00390625 C3.04427734 -0.00003906 3.81707031 0.00382813 4.61328125 0.0078125 C5.39767578 0.00394531 6.18207031 0.00007812 6.99023438 -0.00390625 C12.79910376 0.00613501 12.79910376 0.00613501 13.92578125 1.1328125 C15.22515625 1.1740625 16.52453125 1.2153125 17.86328125 1.2578125 C24.13069879 1.89450254 28.14169877 5.27617735 32.92578125 9.1328125 C33.65152344 9.68324219 34.37726563 10.23367187 35.125 10.80078125 C42.70414766 16.87853585 47.2779251 24.57524682 48.92578125 34.1328125 C48.92578125 35.4528125 48.92578125 36.7728125 48.92578125 38.1328125 C45.64472718 38.48561401 44.19436713 38.30098481 41.35546875 36.5234375 C40.09089844 35.46382812 40.09089844 35.46382812 38.80078125 34.3828125 C37.95257813 33.68671875 37.104375 32.990625 36.23046875 32.2734375 C34.1513388 30.34231341 32.61546692 28.39233352 30.92578125 26.1328125 C28.83162321 25.33657428 28.83162321 25.33657428 26.92578125 25.1328125 C26.92578125 24.4728125 26.92578125 23.8128125 26.92578125 23.1328125 C25.70890625 23.0503125 24.49203125 22.9678125 23.23828125 22.8828125 C16.88370458 22.18903752 10.96752122 20.14167209 4.92578125 18.1328125 C3.85070312 17.81699219 2.775625 17.50117188 1.66796875 17.17578125 C-3.07254223 15.37276639 -4.48531147 11.20546504 -6.82421875 6.9453125 C-8.07421875 4.1328125 -8.07421875 4.1328125 -8.07421875 1.1328125 C-5.31716991 0.35610298 -2.8615856 0.00471265 0 0 Z " fill="#FBC935" transform="translate(50.07421875,5.8671875)"/>
<path d="M0 0 C1.24007812 0.00128906 2.48015625 0.00257812 3.7578125 0.00390625 C9.56200742 0.06007588 14.27051691 0.31376856 19.75 2.375 C19.75 3.035 19.75 3.695 19.75 4.375 C18.32880859 4.13716797 18.32880859 4.13716797 16.87890625 3.89453125 C3.37813629 1.98618742 -12.93751874 1.56855707 -24.875 9.01171875 C-27.25 10.375 -27.25 10.375 -31.25 10.375 C-31.476875 10.931875 -31.70375 11.48875 -31.9375 12.0625 C-33.25 14.375 -33.25 14.375 -35.6875 16.6875 C-38.08115584 19.19791954 -39.21351165 21.15230205 -40.43359375 24.359375 C-41.40882272 26.76711735 -42.60320948 29.01379032 -43.8125 31.3125 C-46.00836104 35.63146766 -47.28463888 39.63595451 -48.25 44.375 C-48.91 44.375 -49.57 44.375 -50.25 44.375 C-50.16217358 47.20967342 -50.05519098 50.04153416 -49.9375 52.875 C-49.91494141 53.66648438 -49.89238281 54.45796875 -49.86914062 55.2734375 C-49.61499203 60.91091538 -48.40621348 65.1636912 -46.25 70.375 C-44.79232624 75.62426337 -43.93911477 80.97693431 -43.25 86.375 C-49.57185235 80.46791647 -52.36012437 73.6877977 -52.87521362 65.11050415 C-52.97651846 62.01291551 -52.99025293 58.92242142 -52.95678711 55.82348633 C-52.93754753 53.4433799 -52.97706646 51.06912468 -53.02148438 48.68945312 C-53.1036092 34.17906531 -48.33108342 24.41363485 -38.1796875 14.07421875 C-33.89930754 10.13056201 -29.45249371 6.97963831 -24.25 4.375 C-23.56856934 4.0248584 -22.88713867 3.6747168 -22.18505859 3.31396484 C-14.81980702 -0.09338787 -8.01544885 -0.16030898 0 0 Z " fill="#8D5716" transform="translate(52.25,-0.375)"/>
<path d="M0 0 C13.57405481 5.74731257 23.74643932 15.68553635 29.375 29.375 C32.04397918 36.50001397 32.2817079 42.91789631 32.375 50.5 C32.43107422 52.18222656 32.43107422 52.18222656 32.48828125 53.8984375 C32.59923404 64.5745612 29.39671861 73.47104186 23 82 C22.67 80.68 22.34 79.36 22 78 C22.66 78 23.32 78 24 78 C24.103125 77.484375 24.20625 76.96875 24.3125 76.4375 C25 74 25 74 26.5 70.875 C28.46750459 66.30655032 28.77917366 61.93389131 29 57 C29.07605469 55.70320313 29.15210937 54.40640625 29.23046875 53.0703125 C29.59507642 44.21004151 28.7116942 37.41479358 25.2890625 29.1484375 C23.91483051 25.79197996 22.94290224 22.49843166 22 19 C21.34 19 20.68 19 20 19 C19.731875 18.195625 19.46375 17.39125 19.1875 16.5625 C18.795625 15.716875 18.40375 14.87125 18 14 C17.01 13.67 16.02 13.34 15 13 C15 12.34 15 11.68 15 11 C13.35 10.67 11.7 10.34 10 10 C9.67 9.01 9.34 8.02 9 7 C6.49552484 5.78130071 6.49552484 5.78130071 4 5 C4 4.34 4 3.68 4 3 C2.68 3 1.36 3 0 3 C0 2.01 0 1.02 0 0 Z " fill="#815E3F" transform="translate(73,3)"/>
<path d="M0 0 C1.24007812 0.00128906 2.48015625 0.00257812 3.7578125 0.00390625 C9.56200742 0.06007588 14.27051691 0.31376856 19.75 2.375 C19.75 3.035 19.75 3.695 19.75 4.375 C18.32880859 4.13716797 18.32880859 4.13716797 16.87890625 3.89453125 C3.37813629 1.98618742 -12.93751874 1.56855707 -24.875 9.01171875 C-27.25 10.375 -27.25 10.375 -31.25 10.375 C-31.476875 10.931875 -31.70375 11.48875 -31.9375 12.0625 C-33.60302319 14.99699324 -35.87221176 16.99721176 -38.25 19.375 C-38.58 20.365 -38.91 21.355 -39.25 22.375 C-40.136875 22.849375 -41.02375 23.32375 -41.9375 23.8125 C-47.04747992 26.91808102 -48.92343918 33.12786283 -51.25 38.375 C-52.53840256 34.50979233 -51.74687011 33.55121757 -50 29.9375 C-44.18984401 18.85392299 -35.49758609 10.00612524 -24.25 4.375 C-23.56856934 4.0248584 -22.88713867 3.6747168 -22.18505859 3.31396484 C-14.81980702 -0.09338787 -8.01544885 -0.16030898 0 0 Z " fill="#7D5B36" transform="translate(52.25,-0.375)"/>
<path d="M0 0 C0.33 0.66 0.66 1.32 1 2 C1.99 2.33 2.98 2.66 4 3 C-3.20181836 11.62467001 -10.01141314 18.48295229 -21 22 C-21.99 21.67 -22.98 21.34 -24 21 C-23.34 21 -22.68 21 -22 21 C-22 20.01 -22 19.02 -22 18 C-21.32453125 17.78085938 -20.6490625 17.56171875 -19.953125 17.3359375 C-14.06273315 15.24195427 -11.04302527 13.7208875 -8 8 C-6.375 6.125 -6.375 6.125 -5 5 C-4.34 5 -3.68 5 -3 5 C-2.690625 4.360625 -2.38125 3.72125 -2.0625 3.0625 C-1 1 -1 1 0 0 Z " fill="#91621C" transform="translate(91,83)"/>
<path d="M0 0 C3.52389926 2.34926618 3.80477749 3.523612 5.125 7.4375 C5.45757812 8.40558594 5.79015625 9.37367187 6.1328125 10.37109375 C6.41898437 11.23863281 6.70515625 12.10617188 7 13 C7.33 13.99 7.66 14.98 8 16 C11.03790861 42.09318584 11.03790861 42.09318584 4 53 C3.59523438 53.67160156 3.19046875 54.34320313 2.7734375 55.03515625 C1.6875 56.75 1.6875 56.75 0 59 C-0.33 57.68 -0.66 56.36 -1 55 C-0.34 55 0.32 55 1 55 C1.103125 54.484375 1.20625 53.96875 1.3125 53.4375 C2 51 2 51 3.5 47.875 C5.46750459 43.30655032 5.77917366 38.93389131 6 34 C6.07605469 32.70320313 6.15210937 31.40640625 6.23046875 30.0703125 C6.64696197 19.91625435 5.0317611 12.33253554 1 3 C0.67 2.01 0.34 1.02 0 0 Z " fill="#835727" transform="translate(96,26)"/>
<path d="M0 0 C-0.5625 1.8125 -0.5625 1.8125 -2 4 C-5.50990464 5.78686054 -8.04124604 7 -12 7 C-12 7.66 -12 8.32 -12 9 C-16.98182683 10.66060894 -22.15933492 10.18456325 -27.375 10.1875 C-29.08042969 10.20586914 -29.08042969 10.20586914 -30.8203125 10.22460938 C-31.91859375 10.22654297 -33.016875 10.22847656 -34.1484375 10.23046875 C-35.65156494 10.23663208 -35.65156494 10.23663208 -37.18505859 10.24291992 C-40.1412594 9.98780979 -42.31877456 9.23817286 -45 8 C-42.29247058 6.64623529 -40.94645382 7.38839388 -38 8 C-25.49681482 8.81169242 -14.96550415 7.02476684 -3.9609375 0.98828125 C-2 0 -2 0 0 0 Z " fill="#A1670E" transform="translate(81,94)"/>
<path d="M0 0 C3.6032236 0.30026863 4.72864403 0.68075768 7.125 3.5 C7.74375 4.325 8.3625 5.15 9 6 C9.99 6.33 10.98 6.66 12 7 C12.433125 7.474375 12.86625 7.94875 13.3125 8.4375 C15.61015902 10.56496206 18.02750796 11.14128008 21 12 C21 12.66 21 13.32 21 14 C21.78375 14.103125 22.5675 14.20625 23.375 14.3125 C26 15 26 15 28 18 C16.42821727 16.4965129 7.88798196 9.10158302 0 1 C0 0.67 0 0.34 0 0 Z " fill="#614221" transform="translate(9,87)"/>
<path d="M0 0 C0.94735519 0.00141495 1.89471039 0.0028299 2.87077332 0.00428772 C5.8865377 0.00987014 8.90222693 0.02241943 11.91796875 0.03515625 C13.9667958 0.04017352 16.01562402 0.04473603 18.06445312 0.04882812 C23.07815381 0.05983382 28.09179855 0.07708637 33.10546875 0.09765625 C33.10546875 0.42765625 33.10546875 0.75765625 33.10546875 1.09765625 C32.35974609 1.1227124 31.61402344 1.14776855 30.84570312 1.17358398 C27.43215279 1.29038843 24.01882185 1.4127287 20.60546875 1.53515625 C18.84589844 1.59413086 18.84589844 1.59413086 17.05078125 1.65429688 C9.75956813 1.91451004 9.75956813 1.91451004 2.51171875 2.6953125 C-0.59352344 3.06210143 -2.00666233 2.91509022 -4.89453125 2.09765625 C-6.98128079 2.1814506 -9.06602191 2.33182381 -11.14453125 2.53515625 C-12.76101563 2.68791016 -12.76101563 2.68791016 -14.41015625 2.84375 C-15.23 2.92753906 -16.04984375 3.01132812 -16.89453125 3.09765625 C-12.58940465 -1.20747035 -5.71505778 -0.03224545 0 0 Z " fill="#F8AE30" transform="translate(19.89453125,55.90234375)"/>
<path d="M0 0 C1.32 0.33 2.64 0.66 4 1 C-4.10811922 6.40541282 -16.37094164 6.12422627 -25.671875 4.546875 C-27.46677998 4.10133121 -29.23860924 3.56364504 -31 3 C-31 2.67 -31 2.34 -31 2 C-20.77 2 -10.54 2 0 2 C0 1.34 0 0.68 0 0 Z " fill="#EBB436" transform="translate(66,98)"/>
<path d="M0 0 C0.99 0.66 1.98 1.32 3 2 C2.40434622 8.94929412 -3.39888849 12.42121887 -8.3515625 16.66796875 C-12.47507331 20 -12.47507331 20 -16 20 C-16 19.34 -16 18.68 -16 18 C-14.68 17.67 -13.36 17.34 -12 17 C-12 16.34 -12 15.68 -12 15 C-10.35 14.67 -8.7 14.34 -7 14 C-7 13.34 -7 12.68 -7 12 C-6.34 12 -5.68 12 -5 12 C-5 11.34 -5 10.68 -5 10 C-4.01 10 -3.02 10 -2 10 C-1.34 6.7 -0.68 3.4 0 0 Z " fill="#F6C13F" transform="translate(89,77)"/>
<path d="M0 0 C0.99 0 1.98 0 3 0 C3.28875 1.051875 3.5775 2.10375 3.875 3.1875 C5.17523838 7.59386339 6.4508958 11.1763437 9 15 C9.125 17.6875 9.125 17.6875 9 20 C5.82760103 17.11908213 4.00355305 14.46469675 2.25 10.5625 C1.82203125 9.63566406 1.3940625 8.70882812 0.953125 7.75390625 C-0.01106601 4.96802649 -0.19087637 2.92146884 0 0 Z " fill="#725130" transform="translate(0,66)"/>
<path d="M0 0 C0.99 0.66 1.98 1.32 3 2 C0.66705225 2.04241723 -1.66702567 2.04092937 -4 2 C-4.33 1.67 -4.66 1.34 -5 1 C-7.80027165 0.92630864 -10.57557273 0.90776752 -13.375 0.9375 C-14.54675781 0.94426758 -14.54675781 0.94426758 -15.7421875 0.95117188 C-17.82815104 0.96367337 -19.91408052 0.98155867 -22 1 C-22.99 1 -23.98 1 -25 1 C-25 0.34 -25 -0.32 -25 -1 C-17.23733797 -3.58755401 -7.6728963 -2.60588931 0 0 Z " fill="#E8B137" transform="translate(68,6)"/>
<path d="M0 0 C7.49107412 3.25290901 13.15506805 7.31036818 19 13 C18.01 13.33 17.02 13.66 16 14 C15.67 13.01 15.34 12.02 15 11 C13.35 10.67 11.7 10.34 10 10 C9.67 9.01 9.34 8.02 9 7 C6.49552484 5.78130071 6.49552484 5.78130071 4 5 C4 4.34 4 3.68 4 3 C2.68 3 1.36 3 0 3 C0 2.01 0 1.02 0 0 Z " fill="#76573C" transform="translate(73,3)"/>
<path d="M0 0 C-4.10168099 3.70474412 -8.70739435 6.38446682 -14 8 C-14.99 7.67 -15.98 7.34 -17 7 C-16.34 7 -15.68 7 -15 7 C-15 6.01 -15 5.02 -15 4 C-13.44219668 3.32243118 -11.87849904 2.65840543 -10.3125 2 C-9.44238281 1.62875 -8.57226562 1.2575 -7.67578125 0.875 C-4.9427998 -0.01870488 -2.85299066 -0.16449676 0 0 Z " fill="#644621" transform="translate(84,97)"/>
<path d="M0 0 C2.11391258 2.77648219 4.12112393 5.60034879 6.0625 8.5 C6.56910156 9.2528125 7.07570313 10.005625 7.59765625 10.78125 C8.8782097 12.80730672 9.97249368 14.83682881 11 17 C6.44049099 14.74732096 2.88255926 12.85052051 1 7.9375 C0.0786046 5.02934578 0 3.17586574 0 0 Z " fill="#AF6514" transform="translate(6,72)"/>
<path d="M0 0 C0.66 0.33 1.32 0.66 2 1 C1.4225 1.763125 0.845 2.52625 0.25 3.3125 C-2.27912842 7.07031847 -3.62395112 11.14669877 -5.0703125 15.4140625 C-5.90033534 17.72278149 -6.85181287 19.83571807 -8 22 C-7.80832762 13.81036202 -5.97020866 5.97020866 0 0 Z " fill="#A9630F" transform="translate(11,22)"/>
<path d="M0 0 C0.99 0.33 1.98 0.66 3 1 C2.01 1.495 2.01 1.495 1 2 C-0.77603255 8.23804027 -1.24339399 14.55005923 -1 21 C-1.66 21 -2.32 21 -3 21 C-3.55353075 6.21867882 -3.55353075 6.21867882 0 0 Z " fill="#FAC542" transform="translate(6,37)"/>
<path d="M0 0 C3.6032236 0.30026863 4.72864403 0.68075768 7.125 3.5 C7.74375 4.325 8.3625 5.15 9 6 C9.99 6.33 10.98 6.66 12 7 C12.33 7.99 12.66 8.98 13 10 C9.39811284 9.40912862 7.49874402 7.98667144 4.8125 5.5625 C4.11769531 4.94503906 3.42289063 4.32757813 2.70703125 3.69140625 C1 2 1 2 0 0 Z " fill="#705033" transform="translate(9,87)"/>
<path d="M0 0 C0.99 0.33 1.98 0.66 3 1 C4.1875 3.5625 4.1875 3.5625 5 6 C5.66 6 6.32 6 7 6 C7.33 7.32 7.66 8.64 8 10 C4.12539202 8.74337038 2.0139745 7.60395437 0 4 C0 2.68 0 1.36 0 0 Z " fill="#8F5C16" transform="translate(88,16)"/>
<path d="M0 0 C3.9115468 1.47958509 5.2274524 3.53957471 7.25 7.125 C8.03117187 8.49011719 8.03117187 8.49011719 8.828125 9.8828125 C9.40820312 10.93082031 9.40820312 10.93082031 10 12 C9.34 12.66 8.68 13.32 8 14 C4 7.25 4 7.25 4 5 C3.34 5 2.68 5 2 5 C1.34 3.35 0.68 1.7 0 0 Z " fill="#7A6246" transform="translate(91,17)"/>
<path d="M0 0 C0.99 0.33 1.98 0.66 3 1 C1.02 1.99 1.02 1.99 -1 3 C-1 3.66 -1 4.32 -1 5 C-1.99 5.66 -2.98 6.32 -4 7 C-3.67 8.32 -3.34 9.64 -3 11 C-3.99 10.67 -4.98 10.34 -6 10 C-6 8.35 -6 6.7 -6 5 C-5.38125 4.9175 -4.7625 4.835 -4.125 4.75 C-1.81562433 4.18741541 -1.81562433 4.18741541 -0.75 1.9375 C-0.5025 1.298125 -0.255 0.65875 0 0 Z " fill="#F4AE33" transform="translate(26,82)"/>
<path d="M0 0 C0.99 0 1.98 0 3 0 C3.66 2.97 4.32 5.94 5 9 C3.68 8.67 2.36 8.34 1 8 C0.67 5.36 0.34 2.72 0 0 Z " fill="#815930" transform="translate(0,66)"/>
<path d="M0 0 C0.66 0.99 1.32 1.98 2 3 C-0.97 7.95 -0.97 7.95 -4 13 C-4.33 11.68 -4.66 10.36 -5 9 C-4.34 9 -3.68 9 -3 9 C-2.87625 8.443125 -2.7525 7.88625 -2.625 7.3125 C-1.94023145 4.77885636 -1.00866237 2.42078968 0 0 Z " fill="#6E4C2E" transform="translate(100,72)"/>
<path d="M0 0 C3.50876655 5.26314982 4.37033382 9.8082826 5 16 C3 15 3 15 1.9375 13.0625 C0.62215095 8.76569309 0.32963785 4.46746033 0 0 Z " fill="#A1590F" transform="translate(2,62)"/>
<path d="M0 0 C-0.625 1.875 -0.625 1.875 -2 4 C-5.81058817 5.73961634 -8.03483443 6.19298271 -12 5 C-10.37750059 4.16180842 -8.75191503 3.3295884 -7.125 2.5 C-6.22007813 2.0359375 -5.31515625 1.571875 -4.3828125 1.09375 C-2 0 -2 0 0 0 Z " fill="#A87113" transform="translate(81,94)"/>
<path d="M0 0 C1 2 1 2 0.44140625 3.875 C0.15136719 4.57625 -0.13867188 5.2775 -0.4375 6 C-1.66557525 8.90915074 -1.66557525 8.90915074 -2 12 C-3.32 12.33 -4.64 12.66 -6 13 C-3.10933941 3.40546697 -3.10933941 3.40546697 0 0 Z " fill="#E89631" transform="translate(11,25)"/>
<path d="M0 0 C0 3 0 3 -1 6 C-3.0625 7.1875 -3.0625 7.1875 -5 8 C-5.66 7.34 -6.32 6.68 -7 6 C-4.88929795 2.83394693 -3.26460973 1.80412643 0 0 Z " fill="#81572C" transform="translate(14,16)"/>
<path d="M0 0 C0 0.99 0 1.98 0 3 C-6.625 6 -6.625 6 -10 6 C-8.71283353 4.99421411 -7.42011342 3.99553202 -6.125 3 C-5.40570312 2.443125 -4.68640625 1.88625 -3.9453125 1.3125 C-2 0 -2 0 0 0 Z " fill="#E18E31" transform="translate(29,10)"/>
<path d="M0 0 C0.33 0.66 0.66 1.32 1 2 C-5.5 5 -5.5 5 -10 5 C-10 4.34 -10 3.68 -10 3 C-6.73454239 1.11608215 -3.71888239 0.50712033 0 0 Z " fill="#F8AD2F" transform="translate(64,52)"/>
<path d="M0 0 C0.99 0.33 1.98 0.66 3 1 C2.67 2.98 2.34 4.96 2 7 C0.35 7.33 -1.3 7.66 -3 8 C-1.625 6 -1.625 6 0 4 C0.66 4 1.32 4 2 4 C1.34 2.68 0.68 1.36 0 0 Z " fill="#FEBC39" transform="translate(63,45)"/>
<path d="M0 0 C0 0.66 0 1.32 0 2 C-4.05606165 1.53199289 -7.46588679 1.12046792 -11 -1 C-6.99799622 -2.60080151 -3.95443764 -1.29279692 0 0 Z " fill="#805E47" transform="translate(72,2)"/>
<path d="M0 0 C0.99 0.33 1.98 0.66 3 1 C1.35 2.98 -0.3 4.96 -2 7 C-2.33 5.68 -2.66 4.36 -3 3 C-2.01 2.67 -1.02 2.34 0 2 C0 1.34 0 0.68 0 0 Z " fill="#674823" transform="translate(92,85)"/>
<path d="M0 0 C-3.53411321 2.12046792 -6.94393835 2.53199289 -11 3 C-8.21756596 -1.17365106 -4.53441502 -0.22300402 0 0 Z " fill="#BA751D" transform="translate(46,4)"/>
</svg>
